HIERARCHY
ROOT Hips
{
	OFFSET 0.00000 0.00000 0.00000
	CHANNELS 6 Xposition Yposition Zposition Zrotation Yrotation Xrotation 
	JOINT LHipJoint
	{
		OFFSET 0 0 0
		CHANNELS 3 Zrotation Yrotation Xrotation
		JOINT LeftHip
		{
			OFFSET 1.54859 -1.61379 0.86856
			CHANNELS 3 Zrotation Yrotation Xrotation
			JOINT LeftKnee
			{
				OFFSET 2.25087 -6.18423 0.00000
				CHANNELS 3 Zrotation Yrotation Xrotation
				JOINT LeftAnkle
				{
					OFFSET 2.40328 -6.60297 0.00000
					CHANNELS 3 Zrotation Yrotation Xrotation
					JOINT LeftToe
					{
						OFFSET 0.17435 -0.47901 2.02453
						CHANNELS 3 Zrotation Yrotation Xrotation
						End Site
						{
							OFFSET 0.00000 -0.00000 1.04844
						}
					}
				}
			}
		}
	}
	JOINT RHipJoint
	{
		OFFSET 0 0 0
		CHANNELS 3 Zrotation Yrotation Xrotation
		JOINT RightHip
		{
			OFFSET -1.54669 -1.61379 0.86856
			CHANNELS 3 Zrotation Yrotation Xrotation
			JOINT RightKnee
			{
				OFFSET -2.28132 -6.26789 0.00000
				CHANNELS 3 Zrotation Yrotation Xrotation
				JOINT RightAnkle
				{
					OFFSET -2.51636 -6.91365 0.00000
					CHANNELS 3 Zrotation Yrotation Xrotation
					JOINT RightToe
					{
						OFFSET -0.15124 -0.41552 2.21090
						CHANNELS 3 Zrotation Yrotation Xrotation
						End Site
						{
							OFFSET -0.00000 -0.00000 1.13399
						}
					}
				}
			}
		}
	}
	JOINT lowerback
	{
		OFFSET 0 0 0
		CHANNELS 3 Zrotation Yrotation Xrotation
		JOINT Chest
		{
			OFFSET -0.04287 2.26161 -0.25690
			CHANNELS 3 Zrotation Yrotation Xrotation
			JOINT Chest2
			{
				OFFSET 0.02248 2.28395 -0.10140
				CHANNELS 3 Zrotation Yrotation Xrotation
				JOINT lowerneck
				{
					OFFSET 0 0 0
					CHANNELS 3 Zrotation Yrotation Xrotation
					JOINT Neck
					{
						OFFSET -0.11644 1.38496 0.11345
						CHANNELS 3 Zrotation Yrotation Xrotation
						JOINT Head
						{
							OFFSET 0.29383 1.36600 0.06642
							CHANNELS 3 Zrotation Yrotation Xrotation
							End Site
							{
								OFFSET 0.11075 1.41395 -0.00294
							}
						}
					}
				}
				JOINT LeftCollar
				{
					OFFSET 0 0 0
					CHANNELS 3 Zrotation Yrotation Xrotation
					JOINT LeftShoulder
					{
						OFFSET 3.51628 0.59542 -0.30346
CHANNELS 3 Zrotation Xrotation Yrotation
						JOINT LeftElbow
						{
OFFSET 0 -4.764050 0.000000
CHANNELS 3 Zrotation Xrotation Yrotation
							JOINT LeftWrist
							{
OFFSET 0 -3.137590 -0.000000
CHANNELS 3 Zrotation Xrotation Yrotation
								JOINT lhand
								{
									OFFSET 0 0 0
CHANNELS 3 Zrotation Xrotation Yrotation
									JOINT LFingers
									{
OFFSET 0 -0.732260 -0.000000
CHANNELS 3 Zrotation Xrotation Yrotation
										End Site
										{
OFFSET 0 -0.590370 -0.000000
										}
									}
								}
								JOINT LThumb
								{
OFFSET 0 0.000000 0.000000
CHANNELS 3 Zrotation Xrotation Yrotation
									End Site
									{
OFFSET 0 -0.599380 0.599380
									}
								}
							}
						}
					}
				}
				JOINT RightCollar
				{
					OFFSET 0 0 0
					CHANNELS 3 Zrotation Yrotation Xrotation
					JOINT RightShoulder
					{
						OFFSET -3.30990 0.84213 -0.36430
CHANNELS 3 Zrotation Xrotation Yrotation
						JOINT RightElbow
						{
OFFSET 0 -5.101610 -0.000000
CHANNELS 3 Zrotation Xrotation Yrotation
							JOINT RightWrist
							{
OFFSET 0 -3.232670 -0.000000
CHANNELS 3 Zrotation Xrotation Yrotation
								JOINT rhand
								{
									OFFSET 0 0 0
CHANNELS 3 Zrotation Xrotation Yrotation
									JOINT RFingers
									{
OFFSET 0 -0.702000 -0.000000
CHANNELS 3 Zrotation Xrotation Yrotation
										End Site
										{
OFFSET 0 -0.565970 -0.000000
										}
									}
								}
								JOINT RThumb
								{
OFFSET 0 0.000000 0.000000
CHANNELS 3 Zrotation Xrotation Yrotation
									End Site
									{
OFFSET 0 -0.574610 0.574610
									}
								}
							}
						}
					}
				}
			}
		}
	}
}
MOTION
Frames: 13
Frame Time: .0083333
-37.6517 15.5858 -16.3449 25.7031 81.5680 23.6803 0.0000 0.0000 0.0000 -25.5562 -4.3861 -3.2790 2.4698 9.7828 28.2761 0.4709 -14.4418 -14.8866 0.6557 5.1794 14.4210 0.0000 0.0000 0.0000 18.0405 -3.6759 -9.5226 -5.1713 -13.5741 41.5575 -3.2802 -8.9496 -38.1491 -0.2403 -3.1547 8.7098 -1.4660 -3.0963 -2.5751 -0.5330 -3.9114 6.5384 -0.1204 -1.9482 8.3645 -12.5566 -0.1248 -2.1543 11.6477 0.1451 -0.7937 5.5776 0.1456 0.1080 0.0000 -0.0000 0.0000 -2.184 4.9018 -51.119 127.5217 -53.9474 91.8342 14.7757 -20.685 -27.0335 0.0 0.0 0.0 -7.1250 0.0 0.0 -16.9325 56.9889 5.0735 0.0000 -0.0000 0.0000 1.0353 1.4367 25.9661 -65.7151 -57.6499 -39.1346 -21.3256 4.9121 -21.3337 0.0 0.0 0.0 7.1250 0.0 -0.0 4.6517 7.2952 4.0371
-37.6334 15.6202 -16.3434 23.9429 81.4444 21.9330 0.0000 0.0000 0.0000 -25.5291 -5.0237 -3.7598 2.5524 9.9325 28.7584 0.6353 -13.1298 -15.8142 0.2997 3.5202 9.7306 0.0000 0.0000 0.0000 18.1416 -4.2273 -9.3583 -5.0251 -13.4121 40.9312 -3.2419 -8.7397 -37.8478 -0.2115 -2.9606 8.1691 -1.6937 -3.0337 -2.3093 -0.1118 -3.8520 6.3767 0.4737 -1.9515 8.0792 -12.9447 -0.0254 -1.6385 11.2491 0.2466 -1.2060 5.5173 0.1825 -0.1109 -0.0000 -0.0000 0.0000 -2.946 5.1379 -51.2182 127.4538 -53.9722 91.7793 14.3457 -20.525 -27.1071 0.0 0.0 0.0 -7.1250 0.0 0.0 -17.4191 56.9695 5.2172 -0.0000 -0.0000 0.0000 0.4274 1.8137 25.7768 -66.3064 -57.7687 -39.6345 -21.3512 5.933 -20.5698 0.0 0.0 0.0 7.1250 0.0 -0.0 4.5716 8.0913 3.8954
-37.6272 15.6221 -16.3457 22.9758 81.2812 21.0806 0.0000 0.0000 0.0000 -25.6047 -5.5751 -3.5599 2.5485 9.9256 28.7363 0.7329 -12.4682 -16.4441 0.2814 3.4116 9.4270 0.0000 0.0000 0.0000 18.1399 -4.5202 -9.5856 -5.0141 -13.3997 40.8837 -3.2611 -8.4049 -37.7658 -0.2202 -3.0209 8.3368 -2.0389 -2.9785 -2.0833 0.2920 -3.7940 6.1786 1.1116 -1.9599 7.7858 -13.6754 0.1136 -1.8650 11.3316 0.4546 -0.9121 5.6665 0.2918 -0.0158 0.0000 -0.0000 0.0000 -3.6905 5.5551 -51.3756 127.4798 -53.9627 91.8003 14.2713 -20.0556 -27.0619 0.0 0.0 0.0 -7.1250 0.0 0.0 -17.4679 56.9107 5.2073 0.0000 -0.0000 0.0000 -0.2101 2.0807 25.6009 -66.7432 -57.8542 -40.0041 -21.3737 6.9703 -19.7823 0.0 0.0 0.0 7.1250 0.0 -0.0 4.4945 8.914 3.7556
-37.6157 15.6205 -16.3467 24.1206 81.1740 22.2441 0.0000 0.0000 0.0000 -25.9799 -6.1499 -3.3094 2.5588 9.9441 28.7959 0.7926 -11.9559 -16.8081 0.2978 3.5090 9.6993 0.0000 0.0000 0.0000 17.8607 -4.4984 -9.5293 -4.9962 -13.3795 40.8064 -3.1446 -8.6799 -37.3304 -0.1623 -2.5958 7.1555 -2.2720 -3.0644 -2.1192 0.3261 -3.8951 6.2286 1.2633 -2.0254 7.8857 -14.3508 0.2304 -2.1709 11.6980 0.6696 -0.9380 5.8970 0.4111 -0.0034 0.0000 0.0000 0.0000 -3.9663 5.8098 -51.2972 127.8298 -53.8342 92.0831 14.2432 -20.0675 -27.0878 0.0 0.0 0.0 -7.1250 0.0 0.0 -17.5125 56.9296 5.2293 0.0000 0.0000 0.0000 -0.4164 1.9493 25.9303 -66.7980 -57.8648 -40.0505 -21.3909 7.1441 -19.0347 0.0 0.0 0.0 7.1250 0.0 -0.0 4.4269 9.6971 3.6291
-37.6048 15.6170 -16.3469 24.4578 81.0861 22.5856 0.0000 0.0000 0.0000 -26.1773 -6.4616 -3.0704 2.5518 9.9314 28.7550 0.8458 -11.6225 -17.1750 0.2969 3.5037 9.6845 0.0000 0.0000 0.0000 17.7397 -4.5197 -9.5300 -5.0158 -13.4015 40.8907 -3.2097 -8.4191 -37.5177 -0.1813 -2.7425 7.5627 -2.2074 -3.2078 -2.3576 0.2579 -4.0766 6.4281 1.1180 -2.1087 8.2401 -15.0240 0.3035 -2.6669 12.2520 0.8316 -0.5514 6.1893 0.5064 0.1652 0.0000 -0.0000 0.0000 -4.0986 5.2548 -50.9955 127.8398 -53.8304 92.0912 14.0717 -20.4947 -26.9673 0.0 0.0 0.0 -7.1250 0.0 0.0 -17.6149 56.7787 5.1963 0.0000 -0.0000 0.0000 -0.4363 1.5874 26.439 -66.7229 -57.8503 -39.9869 -21.4312 7.4027 -18.2514 0.0 0.0 0.0 7.1250 0.0 -0.0 4.3445 10.516 3.489
-37.5973 15.6135 -16.3484 24.6033 81.0086 22.8155 0.0000 0.0000 0.0000 -26.2749 -6.5836 -3.0856 2.5620 9.9497 28.8139 0.8818 -11.5176 -17.4539 0.3004 3.5239 9.7410 0.0000 0.0000 0.0000 17.6289 -4.7111 -9.7125 -5.0370 -13.4253 40.9822 -3.3017 -7.9655 -37.7397 -0.2178 -3.0043 8.2907 -2.1654 -3.2526 -2.5371 0.2198 -4.1292 6.5675 1.0341 -2.1304 8.4935 -15.2694 0.3301 -2.9564 12.1956 0.9199 -0.6077 6.2144 0.5598 0.1831 -0.0000 0.0000 0.0000 -4.1888 4.6096 -50.9431 127.5130 -53.9506 91.8272 13.8617 -20.2806 -26.8131 0.0 0.0 0.0 -7.1250 0.0 0.0 -17.7362 56.588 5.151 -0.0000 0.0000 0.0000 -0.4099 1.2451 26.5758 -66.7171 -57.8492 -39.982 -21.4287 8.1155 -17.4519 0.0 0.0 0.0 7.1250 0.0 -0.0 4.2922 11.3593 3.3725
-37.5891 15.6105 -16.3460 23.3714 80.7927 21.6089 0.0000 0.0000 0.0000 -26.1622 -6.4660 -3.1890 2.5926 10.0044 28.9908 0.9089 -11.4654 -17.6688 0.3206 3.6394 10.0645 0.0000 0.0000 0.0000 17.7372 -4.3861 -9.6977 -5.0559 -13.4465 41.0637 -3.2086 -8.2495 -37.4229 -0.1736 -2.6842 7.4007 -2.0530 -3.2030 -2.2915 0.2423 -4.0792 6.4517 1.0192 -2.0993 8.2135 -15.6348 0.4715 -3.5127 12.4571 1.1601 0.0889 6.3667 0.6897 0.4401 0.0000 0.0000 0.0000 -4.3437 4.6893 -51.1675 127.2772 -54.0363 91.6364 13.6953 -19.2149 -26.7149 0.0 0.0 0.0 -7.1250 0.0 0.0 -17.8467 56.4602 5.1287 0.0000 0.0000 0.0000 -0.3792 1.471 26.8736 -66.8565 -57.8761 -40.1 -21.4502 8.0571 -16.6725 0.0 0.0 0.0 7.1250 0.0 -0.0 4.2287 12.1795 3.2504
-37.5836 15.6051 -16.3469 20.7113 80.6102 19.0243 0.0000 0.0000 0.0000 -25.7998 -6.4079 -3.3584 2.6324 10.0747 29.2189 0.9469 -11.3374 -17.9558 0.3349 3.7193 10.2883 0.0000 0.0000 0.0000 18.1169 -4.1921 -9.8045 -5.0796 -13.4729 41.1653 -3.2735 -7.9239 -37.5784 -0.1964 -2.8537 7.8717 -1.8122 -3.2126 -2.2873 0.4575 -4.1223 6.4742 1.1065 -2.1133 8.2354 -16.2610 0.6340 -4.1772 12.7134 1.4589 0.8148 6.5661 0.8506 0.7113 -0.0000 0.0000 0.0000 -4.8002 4.4922 -50.5737 127.4017 -53.9911 91.7372 13.5806 -20.9905 -26.6926 0.0 0.0 0.0 -7.1250 0.0 0.0 -17.9499 56.4154 5.14 -0.0000 0.0000 0.0000 -0.6055 1.4457 27.5081 -66.8812 -57.8809 -40.121 -21.5042 7.2268 -15.8997 0.0 0.0 0.0 7.1250 0.0 -0.0 4.1468 12.9902 3.1169
-37.5758 15.5981 -16.3503 19.2356 80.4867 17.6701 0.0000 0.0000 0.0000 -25.5984 -6.4078 -3.5695 2.6726 10.1452 29.4481 0.9752 -11.3094 -18.1821 0.3438 3.7676 10.4239 0.0000 0.0000 0.0000 18.2794 -4.3578 -10.1004 -5.1206 -13.5184 41.3413 -3.4438 -6.9448 -37.9376 -0.2307 -3.0917 8.5341 -1.4544 -3.2195 -2.1713 0.4263 -4.1575 6.3355 0.8840 -2.1074 7.9867 -16.5666 0.8290 -4.5205 13.0440 1.7473 1.4285 6.7351 1.0002 0.8980 -0.0000 -0.0000 0.0000 -4.7831 4.7437 -50.5707 127.3062 -54.0258 91.6599 13.1182 -20.9169 -25.7507 0.0 0.0 0.0 -7.1250 0.0 0.0 -17.8658 55.4237 4.6799 -0.0000 -0.0000 0.0000 -0.4629 1.7696 27.9037 -67.1054 -57.9237 -40.3109 -21.5703 6.9959 -15.1219 0.0 0.0 0.0 7.1250 0.0 -0.0 4.0592 13.8063 2.9809
-37.5560 15.5865 -16.3455 19.4606 80.1917 17.8051 0.0000 0.0000 0.0000 -25.7753 -6.3071 -3.5263 2.7169 10.2220 29.6987 1.0123 -11.2937 -18.4810 0.3603 3.8561 10.6723 0.0000 0.0000 0.0000 18.0632 -4.3181 -10.0861 -5.1794 -13.5830 41.5920 -3.4222 -6.6717 -37.7015 -0.1550 -2.5369 6.9920 -1.5031 -3.1167 -2.1864 0.2870 -4.0038 6.4338 0.7757 -2.0292 8.0899 -16.5745 0.8310 -5.0045 13.2666 1.7808 2.0608 6.8203 1.0279 1.1547 -0.0000 0.0000 0.0000 -4.6433 4.7552 -50.9143 127.2526 -54.0452 91.6165 12.8044 -20.7109 -25.072 0.0 0.0 0.0 -7.1250 0.0 0.0 -17.7999 54.7146 4.3507 -0.0000 0.0000 0.0000 -0.2174 1.9039 28.0038 -67.4452 -57.9877 -40.5989 -21.6458 6.995 -14.3408 0.0 0.0 0.0 7.1250 0.0 -0.0 3.9678 14.6267 2.8442
-37.5365 15.5696 -16.3508 21.2201 79.9733 19.5019 0.0000 0.0000 0.0000 -26.2489 -6.3050 -3.5023 2.7653 10.3050 29.9702 1.0377 -11.3263 -18.6922 0.3831 3.9751 11.0066 0.0000 0.0000 0.0000 17.4387 -4.8540 -10.3506 -5.2579 -13.6685 41.9255 -3.3961 -6.3093 -37.4017 -0.1213 -2.2457 6.1852 -1.7611 -3.0324 -2.2514 0.1595 -3.8609 6.5403 0.7918 -1.9700 8.2489 -16.8287 0.8795 -6.0321 13.5471 1.9439 3.1824 6.9833 1.1310 1.6207 -0.0000 0.0000 0.0000 -4.6681 4.56 -51.2225 127.2787 -54.0358 91.6376 12.6335 -21.0013 -24.8725 0.0 0.0 0.0 -7.1250 0.0 0.0 -17.8608 54.4914 4.2679 -0.0000 0.0000 0.0000 -0.1188 1.9425 27.9629 -67.6698 -58.0294 -40.7895 -21.7204 6.9711 -13.5472 0.0 0.0 0.0 7.1250 0.0 -0.0 3.8790 15.4624 2.7108
-37.5227 15.5530 -16.3548 21.4307 79.8246 19.7714 0.0000 0.0000 0.0000 -26.4032 -6.4134 -3.6247 2.8218 10.4008 30.2847 1.0785 -11.3116 -19.0143 0.4030 4.0754 11.2890 0.0000 0.0000 0.0000 17.2349 -5.2135 -10.6967 -5.3429 -13.7598 42.2836 -3.5152 -5.7240 -37.7272 -0.1689 -2.6478 7.2997 -1.7712 -2.9321 -2.2915 0.1314 -3.7224 6.5589 0.7789 -1.9014 8.2865 -17.1032 0.8527 -6.4035 13.8372 1.9568 3.5109 7.1346 1.1497 1.7702 -0.0000 0.0000 0.0000 -4.7393 4.3913 -51.3472 127.1902 -54.0678 91.5659 12.6344 -21.2807 -25.3151 0.0 0.0 0.0 -7.1250 0.0 0.0 -18.1039 54.9142 4.518 -0.0000 0.0000 0.0000 -0.043 2.0478 27.5832 -68.0161 -58.0927 -41.0833 -21.7004 8.1637 -12.7105 0.0 0.0 0.0 7.1250 0.0 -0.0 3.8565 16.355 2.6205
-37.5133 15.5365 -16.3549 20.1492 79.5676 18.5708 0.0000 0.0000 0.0000 -26.3102 -6.5059 -3.8172 2.8937 10.5209 30.6805 1.1417 -11.1972 -19.4894 0.4270 4.1938 11.6224 0.0000 0.0000 0.0000 17.3343 -5.1529 -10.9692 -5.4368 -13.8594 42.6771 -3.5943 -5.4512 -37.9965 -0.1855 -2.7739 7.6500 -1.6118 -2.8127 -2.4437 0.1430 -3.5675 6.6850 0.7063 -1.8149 8.4979 -17.1453 0.8123 -5.7029 13.8652 1.9007 1.9458 7.1211 1.1211 1.2079 0.0000 -0.0000 0.0000 -4.7681 4.1834 -51.2473 127.1393 -54.0861 91.5248 12.935 -21.555 -26.4712 0.0 0.0 0.0 -7.1250 0.0 0.0 -18.4712 56.0739 5.1418 0.0000 -0.0000 0.0000 0.0906 1.9018 27.0645 -68.3532 -58.1532 -41.3695 -21.5849 10.3068 -11.8584 0.0 0.0 0.0 7.1250 0.0 -0.0 3.9044 17.2737 2.5749
